<svg width="80" height="80" viewBox="0 0 80 80" fill="none" xmlns="http://www.w3.org/2000/svg">
<path fill-rule="evenodd" clip-rule="evenodd" d="M53.3811 3H27.1535C22.8079 3 19.2852 7.5571 19.2852 13.1786C19.2852 17.5355 20.1921 21.6184 21.775 25.1286C11.7184 31.3912 5 42.7302 5 55.6785V60.1428C5 70.005 12.795 77.9999 22.4107 77.9999H57.2321C66.8478 77.9999 74.6428 70.005 74.6428 60.1428V55.6785C74.6428 46.2065 70.9742 37.1224 64.4439 30.4247C62.6439 28.5786 60.6671 26.9554 58.5543 25.5725C60.2639 21.9646 61.2494 17.7205 61.2494 13.1786C61.2494 7.5571 57.7267 3 53.3811 3Z" fill="#ECF0F8" fill-opacity="0.4"/>
<mask id="path-2-outside-1_219_20" maskUnits="userSpaceOnUse" x="9.03906" y="6.14258" width="62" height="69" fill="black">
<rect fill="white" x="9.03906" y="6.14258" width="62" height="69"/>
<path fill-rule="evenodd" clip-rule="evenodd" d="M48.1933 10.1426H31.4522C28.6785 10.1426 26.4299 12.4211 26.4299 15.2319C26.4299 21.7902 31.6766 27.1069 38.1487 27.1069H39.7781C25.0062 27.1322 13.0391 39.1763 13.0391 54.0299V57.3953C13.0391 64.8299 19.0352 70.8568 26.4319 70.8568H53.2176C60.6143 70.8568 66.6105 64.8299 66.6105 57.3953V54.0299C66.6105 46.8895 63.7884 40.0415 58.7651 34.9924C53.7527 29.9543 46.9583 27.1191 39.871 27.1069H41.4969C47.969 27.1069 53.2156 21.7902 53.2156 15.2319C53.2156 12.4211 50.9671 10.1426 48.1933 10.1426Z"/>
</mask>
<path fill-rule="evenodd" clip-rule="evenodd" d="M48.1933 10.1426H31.4522C28.6785 10.1426 26.4299 12.4211 26.4299 15.2319C26.4299 21.7902 31.6766 27.1069 38.1487 27.1069H39.7781C25.0062 27.1322 13.0391 39.1763 13.0391 54.0299V57.3953C13.0391 64.8299 19.0352 70.8568 26.4319 70.8568H53.2176C60.6143 70.8568 66.6105 64.8299 66.6105 57.3953V54.0299C66.6105 46.8895 63.7884 40.0415 58.7651 34.9924C53.7527 29.9543 46.9583 27.1191 39.871 27.1069H41.4969C47.969 27.1069 53.2156 21.7902 53.2156 15.2319C53.2156 12.4211 50.9671 10.1426 48.1933 10.1426Z" fill="url(#paint0_linear_219_20)" fill-opacity="0.6"/>
<path d="M39.7781 27.1069L39.7849 31.1069L39.7781 23.1069V27.1069ZM58.7651 34.9924L61.6008 32.1712L61.6008 32.1712L58.7651 34.9924ZM39.871 27.1069V23.1069L39.8641 31.1069L39.871 27.1069ZM31.4522 14.1426H48.1933V6.14258H31.4522V14.1426ZM30.4299 15.2319C30.4299 14.5802 30.9374 14.1426 31.4522 14.1426V6.14258C26.4196 6.14258 22.4299 10.2621 22.4299 15.2319H30.4299ZM38.1487 23.1069C33.9355 23.1069 30.4299 19.6312 30.4299 15.2319H22.4299C22.4299 23.9493 29.4177 31.1069 38.1487 31.1069V23.1069ZM39.7781 23.1069H38.1487V31.1069H39.7781V23.1069ZM17.0391 54.0299C17.0391 41.3639 27.2384 31.1284 39.7849 31.1069L39.7712 23.1069C22.774 23.136 9.03906 36.9888 9.03906 54.0299H17.0391ZM17.0391 57.3953V54.0299H9.03906V57.3953H17.0391ZM26.4319 66.8568C21.2637 66.8568 17.0391 62.6401 17.0391 57.3953H9.03906C9.03906 67.0197 16.8068 74.8568 26.4319 74.8568V66.8568ZM53.2176 66.8568H26.4319V74.8568H53.2176V66.8568ZM62.6105 57.3953C62.6105 62.6401 58.3859 66.8568 53.2176 66.8568V74.8568C62.8427 74.8568 70.6105 67.0197 70.6105 57.3953H62.6105ZM62.6105 54.0299V57.3953H70.6105V54.0299H62.6105ZM55.9295 37.8136C60.2049 42.111 62.6105 47.9437 62.6105 54.0299H70.6105C70.6105 45.8352 67.3719 37.972 61.6008 32.1712L55.9295 37.8136ZM39.8641 31.1069C45.8864 31.1173 51.664 33.5263 55.9295 37.8136L61.6008 32.1712C55.8415 26.3824 48.0303 23.121 39.8779 23.1069L39.8641 31.1069ZM41.4969 23.1069H39.871V31.1069H41.4969V23.1069ZM49.2156 15.2319C49.2156 19.6312 45.71 23.1069 41.4969 23.1069V31.1069C50.2279 31.1069 57.2156 23.9493 57.2156 15.2319H49.2156ZM48.1933 14.1426C48.7081 14.1426 49.2156 14.5802 49.2156 15.2319H57.2156C57.2156 10.2621 53.226 6.14258 48.1933 6.14258V14.1426Z" fill="#ECF0F8" mask="url(#path-2-outside-1_219_20)"/>
<defs>
<linearGradient id="paint0_linear_219_20" x1="15.9962" y1="75.7016" x2="74.2557" y2="58.6131" gradientUnits="userSpaceOnUse">
<stop stop-color="#FAED00"/>
<stop offset="0.1706" stop-color="#A0E720"/>
<stop offset="0.5099" stop-color="#00D900"/>
<stop offset="0.8516" stop-color="#00ADEE"/>
<stop offset="1" stop-color="#008AD0"/>
</linearGradient>
</defs>
</svg>
