<svg width="80" height="80" viewBox="0 0 80 80" fill="none" xmlns="http://www.w3.org/2000/svg">
<path opacity="0.4" d="M60 10C60 6.68629 57.3137 4 54 4H26C22.6863 4 20 6.68629 20 10V19C20 19.5523 19.5523 20 19 20L10 20C6.68629 20 4 22.6863 4 26V54C4 57.3137 6.68629 60 10 60H19C19.5523 60 20 60.4477 20 61V70C20 73.3137 22.6863 76 26 76H54C57.3137 76 60 73.3137 60 70V61C60 60.4477 60.4477 60 61 60H70C73.3137 60 76 57.3137 76 54V26C76 22.6863 73.3137 20 70 20L61 20C60.4477 20 60 19.5523 60 19V10Z" fill="#ECF0F8"/>
<mask id="path-2-outside-1_219_47" maskUnits="userSpaceOnUse" x="8" y="8" width="64" height="64" fill="black">
<rect fill="white" x="8" y="8" width="64" height="64"/>
<path fill-rule="evenodd" clip-rule="evenodd" d="M52 13C52 12.4477 51.5523 12 51 12H29C28.4477 12 28 12.4477 28 13V27C28 27.5523 27.5523 28 27 28L13 28C12.4477 28 12 28.4477 12 29V51C12 51.5523 12.4477 52 13 52H27C27.5523 52 28 52.4477 28 53V67C28 67.5523 28.4477 68 29 68H51C51.5523 68 52 67.5523 52 67V53C52 52.4477 52.4477 52 53 52H67C67.5523 52 68 51.5523 68 51V29C68 28.4477 67.5523 28 67 28L53 28C52.4477 28 52 27.5523 52 27V13Z"/>
</mask>
<path fill-rule="evenodd" clip-rule="evenodd" d="M52 13C52 12.4477 51.5523 12 51 12H29C28.4477 12 28 12.4477 28 13V27C28 27.5523 27.5523 28 27 28L13 28C12.4477 28 12 28.4477 12 29V51C12 51.5523 12.4477 52 13 52H27C27.5523 52 28 52.4477 28 53V67C28 67.5523 28.4477 68 29 68H51C51.5523 68 52 67.5523 52 67V53C52 52.4477 52.4477 52 53 52H67C67.5523 52 68 51.5523 68 51V29C68 28.4477 67.5523 28 67 28L53 28C52.4477 28 52 27.5523 52 27V13Z" fill="url(#paint0_linear_219_47)" fill-opacity="0.6"/>
<path d="M53 28L53 32L53 28ZM67 28L67 24L67 28ZM27 28L27 32L27 28ZM29 16H51V8H29V16ZM32 27V13H24V27H32ZM13 32L27 32L27 24L13 24L13 32ZM16 51V29H8V51H16ZM27 48H13V56H27V48ZM32 67V53H24V67H32ZM51 64H29V72H51V64ZM48 53V67H56V53H48ZM67 48H53V56H67V48ZM64 29V51H72V29H64ZM53 32L67 32L67 24L53 24L53 32ZM48 13V27H56V13H48ZM53 24C54.6569 24 56 25.3431 56 27H48C48 29.7614 50.2386 32 53 32L53 24ZM72 29C72 26.2386 69.7614 24 67 24L67 32C65.3431 32 64 30.6569 64 29H72ZM67 56C69.7614 56 72 53.7614 72 51H64C64 49.3431 65.3431 48 67 48V56ZM56 53C56 54.6569 54.6569 56 53 56V48C50.2386 48 48 50.2386 48 53H56ZM51 72C53.7614 72 56 69.7614 56 67H48C48 65.3431 49.3431 64 51 64V72ZM24 67C24 69.7614 26.2386 72 29 72V64C30.6569 64 32 65.3431 32 67H24ZM27 56C25.3431 56 24 54.6569 24 53H32C32 50.2386 29.7614 48 27 48V56ZM8 51C8 53.7614 10.2386 56 13 56V48C14.6569 48 16 49.3431 16 51H8ZM13 24C10.2386 24 8 26.2386 8 29H16C16 30.6569 14.6569 32 13 32L13 24ZM24 27C24 25.3431 25.3431 24 27 24L27 32C29.7614 32 32 29.7614 32 27H24ZM51 16C49.3431 16 48 14.6569 48 13H56C56 10.2386 53.7614 8 51 8V16ZM29 8C26.2386 8 24 10.2386 24 13H32C32 14.6569 30.6569 16 29 16V8Z" fill="#ECF0F8" mask="url(#path-2-outside-1_219_47)"/>
<defs>
<linearGradient id="paint0_linear_219_47" x1="15.0912" y1="72.4685" x2="74.6497" y2="52.6698" gradientUnits="userSpaceOnUse">
<stop stop-color="#FAED00"/>
<stop offset="0.1706" stop-color="#A0E720"/>
<stop offset="0.5099" stop-color="#00D900"/>
<stop offset="0.8516" stop-color="#00ADEE"/>
<stop offset="1" stop-color="#008AD0"/>
</linearGradient>
</defs>
</svg>
