<svg width="80" height="80" viewBox="0 0 80 80" fill="none" xmlns="http://www.w3.org/2000/svg">
<path opacity="0.6" d="M17 37.8343H15V39.8343V48.6171V50.6171H17H21.3221V51.34H17H15V53.34V62.2057V64.2057H17H21.3221V69V71H23.3221H33.7204H35.7204V69V64.2057H51.9381H53.9381V62.2057V53.34V51.34H51.9381H35.7204V50.7829H37.8796C46.6051 50.7829 53.6277 49.1386 58.5139 45.5718C63.5092 41.9254 66 36.4712 66 29.56C66 22.932 63.8932 17.606 59.0149 14.0363C54.2716 10.5655 47.2245 9 37.8796 9H23.3221H21.3221V11V37.8343H17ZM35.7204 37.7514V22.0314H38.7947C43.7984 22.0314 46.9234 22.6843 48.7659 23.8536C50.3876 24.8828 51.269 26.4826 51.269 29.3943C51.269 32.5686 50.2364 34.4636 48.436 35.6818C46.4726 37.0103 43.284 37.7514 38.5451 37.7514H35.7204Z" fill="url(#paint0_linear_219_12)" stroke="#ECF0F8" stroke-width="4"/>
<path opacity="0.4" d="M17.6654 5.17012V34.5349H11V67.8213H17.6654V75H39.2156V67.8213H57.5725L58 50.5C62.5 47.5 70.5 42.5 69.9033 26.6634C69.2755 10 52.5464 5.64874 44.0483 5.17016C37.2498 4.7873 24.2751 5.17018 17.6654 5.17012Z" stroke="#ECF0F8" stroke-width="4"/>
<defs>
<linearGradient id="paint0_linear_219_12" x1="19.5944" y1="73.6281" x2="71.3493" y2="59.6864" gradientUnits="userSpaceOnUse">
<stop stop-color="#FAED00"/>
<stop offset="0.1706" stop-color="#A0E720"/>
<stop offset="0.5099" stop-color="#00D900"/>
<stop offset="0.8516" stop-color="#00ADEE"/>
<stop offset="1" stop-color="#008AD0"/>
</linearGradient>
</defs>
</svg>
