<svg width="80" height="80" viewBox="0 0 80 80" fill="none" xmlns="http://www.w3.org/2000/svg">
<path opacity="0.4" fill-rule="evenodd" clip-rule="evenodd" d="M44.7163 3.89223C42.3466 1.36926 38.3394 1.36926 35.9696 3.89223L2.63855 39.3783C-0.959404 43.2089 1.75657 49.4861 7.01191 49.4861H13.8193C14.3716 49.4861 14.8193 49.9338 14.8193 50.4861V72.0261C14.8193 74.7875 17.0579 77.0261 19.8193 77.0261H60.1492C62.9106 77.0261 65.1492 74.7875 65.1492 72.0261V50.4861C65.1492 49.9338 65.5969 49.4861 66.1492 49.4861H73.6741C78.9294 49.4861 81.6454 43.2089 78.0474 39.3783L44.7163 3.89223Z" fill="#ECF0F8"/>
<path fill-rule="evenodd" clip-rule="evenodd" d="M71.2153 45.3268C73.8473 45.3268 75.2035 42.1792 73.3957 40.2662L42.6582 7.74026C41.4745 6.48762 39.4812 6.48762 38.2974 7.74025L7.55991 40.2662C5.75213 42.1792 7.10831 45.3268 9.74034 45.3268H15.7666C17.4235 45.3268 18.7666 46.6699 18.7666 48.3268V70.0796C18.7666 71.7365 20.1098 73.0796 21.7666 73.0796H58.2016C59.8584 73.0796 61.2016 71.7364 61.2016 70.0796V48.3268C61.2016 46.6699 62.5447 45.3268 64.2016 45.3268H71.2153Z" fill="#ECF0F8"/>
<mask id="path-3-outside-1_219_32" maskUnits="userSpaceOnUse" x="7.80078" y="8.32031" width="65" height="66" fill="black">
<rect fill="white" x="7.80078" y="8.32031" width="65" height="66"/>
<path fill-rule="evenodd" clip-rule="evenodd" d="M67.1533 41.4985C68.0397 41.4985 68.4879 40.4306 67.867 39.798L41.1917 12.6198C40.7997 12.2205 40.1563 12.2205 39.7644 12.6198L13.0891 39.798C12.4682 40.4306 12.9164 41.4985 13.8028 41.4985H22.7012C23.2535 41.4985 23.7012 41.9462 23.7012 42.4985V69.1173C23.7012 69.6696 24.1489 70.1173 24.7012 70.1173H55.2675C55.8198 70.1173 56.2675 69.6696 56.2675 69.1173V42.4985C56.2675 41.9462 56.7153 41.4985 57.2675 41.4985H67.1533Z"/>
</mask>
<path fill-rule="evenodd" clip-rule="evenodd" d="M67.1533 41.4985C68.0397 41.4985 68.4879 40.4306 67.867 39.798L41.1917 12.6198C40.7997 12.2205 40.1563 12.2205 39.7644 12.6198L13.0891 39.798C12.4682 40.4306 12.9164 41.4985 13.8028 41.4985H22.7012C23.2535 41.4985 23.7012 41.9462 23.7012 42.4985V69.1173C23.7012 69.6696 24.1489 70.1173 24.7012 70.1173H55.2675C55.8198 70.1173 56.2675 69.6696 56.2675 69.1173V42.4985C56.2675 41.9462 56.7153 41.4985 57.2675 41.4985H67.1533Z" fill="url(#paint0_linear_219_32)" fill-opacity="0.6"/>
<path d="M13.0891 39.798L10.2344 36.9961L13.0891 39.798ZM67.867 39.798L65.0123 42.5999L67.867 39.798ZM41.1917 12.6198L38.337 15.4217L41.1917 12.6198ZM39.7644 12.6198L36.9096 9.81795L39.7644 12.6198ZM38.337 15.4217L65.0123 42.5999L70.7217 36.9961L44.0464 9.81795L38.337 15.4217ZM15.9438 42.5999L42.6191 15.4217L36.9096 9.81795L10.2344 36.9961L15.9438 42.5999ZM22.7012 37.4985H13.8028V45.4985H22.7012V37.4985ZM27.7012 69.1173V42.4985H19.7012V69.1173H27.7012ZM55.2675 66.1173H24.7012V74.1173H55.2675V66.1173ZM52.2675 42.4985V69.1173H60.2675V42.4985H52.2675ZM67.1533 37.4985H57.2675V45.4985H67.1533V37.4985ZM60.2675 42.4985C60.2675 44.1553 58.9244 45.4985 57.2675 45.4985V37.4985C54.5061 37.4985 52.2675 39.7371 52.2675 42.4985H60.2675ZM55.2675 74.1173C58.029 74.1173 60.2675 71.8788 60.2675 69.1173H52.2675C52.2675 67.4605 53.6107 66.1173 55.2675 66.1173V74.1173ZM19.7012 69.1173C19.7012 71.8788 21.9397 74.1173 24.7012 74.1173V66.1173C26.358 66.1173 27.7012 67.4605 27.7012 69.1173H19.7012ZM22.7012 45.4985C21.0443 45.4985 19.7012 44.1553 19.7012 42.4985H27.7012C27.7012 39.7371 25.4626 37.4985 22.7012 37.4985V45.4985ZM10.2344 36.9961C7.12984 40.1592 9.37075 45.4985 13.8028 45.4985V37.4985C16.462 37.4985 17.8065 40.7021 15.9438 42.5999L10.2344 36.9961ZM65.0123 42.5999C63.1496 40.7021 64.494 37.4985 67.1533 37.4985V45.4985C71.5854 45.4985 73.8262 40.1592 70.7217 36.9961L65.0123 42.5999ZM44.0464 9.81795C42.0865 7.8211 38.8695 7.8211 36.9096 9.81795L42.6191 15.4217C41.4431 16.6198 39.5129 16.6198 38.337 15.4217L44.0464 9.81795Z" fill="#ECF0F8" mask="url(#path-3-outside-1_219_32)"/>
<defs>
<linearGradient id="paint0_linear_219_32" x1="15.8563" y1="74.7293" x2="75.2171" y2="55.8302" gradientUnits="userSpaceOnUse">
<stop stop-color="#FAED00"/>
<stop offset="0.1706" stop-color="#A0E720"/>
<stop offset="0.5099" stop-color="#00D900"/>
<stop offset="0.8516" stop-color="#00ADEE"/>
<stop offset="1" stop-color="#008AD0"/>
</linearGradient>
</defs>
</svg>
