<svg width="146" height="24" viewBox="0 0 146 24" fill="currentColor" xmlns="http://www.w3.org/2000/svg">
<path d="M65.0172 6.92757L68.0484 4.66992H57.9004V18.1938H68.0484V15.9361H60.7999V12.4832H66.9941V10.2255H60.7999V6.92757H65.0172Z"/>
<path d="M50.2342 9.93778H46.7198V6.92757H52.343L55.3742 4.66992H43.8203V18.1938H49.8608C53.2436 18.1938 55.1984 16.6444 55.1984 13.944C55.1984 11.3543 53.4412 9.93778 50.2342 9.93778ZM49.751 15.9361H46.7198V12.1954H49.751C51.5962 12.1954 52.4528 12.8152 52.4528 14.0768C52.4528 15.3385 51.5302 15.9361 49.751 15.9361Z"/>
<path d="M76.2652 4.66992H70.752V18.1938H73.6513V14.3645H76.2872C79.8016 14.3645 81.9982 12.5053 81.9982 9.51724C81.9982 6.52916 79.8016 4.66992 76.2652 4.66992ZM76.1994 12.1069H73.6294V6.92757H76.1994C78.0664 6.92757 79.0769 7.85719 79.0769 9.51724C79.0769 11.1773 78.0664 12.1069 76.1994 12.1069Z"/>
<path d="M38.856 15.2723C38.0873 15.6929 37.2307 15.9142 36.352 15.9142C33.7381 15.9142 31.849 14.0329 31.849 11.4432C31.849 8.85354 33.7381 6.97217 36.352 6.97217C37.2964 6.95003 38.219 7.2599 38.9879 7.81325L41.0746 6.26387L40.9427 6.13107C39.7347 5.04651 38.1092 4.49316 36.2642 4.49316C34.2652 4.49316 32.4421 5.17931 31.1242 6.41881C29.8062 7.70258 29.0594 9.49543 29.1034 11.3547C29.0814 13.2361 29.8062 15.0511 31.1242 16.379C32.508 17.685 34.3531 18.4153 36.2421 18.3711C38.3289 18.3711 40.152 17.6407 41.3821 16.3126L39.515 14.9182L38.856 15.2723Z"/>
<path d="M116.857 4.69206V18.2158H119.757V12.6824H125.929V18.2158H128.828V4.69206H125.929V10.2477H119.757V4.69206H116.857ZM111.871 18.2158H114.924L109.257 4.69206H106.314L100.537 18.2158H103.458L104.623 15.4934H110.773L111.871 18.2158ZM105.501 13.2357L107.742 7.81293L109.85 13.2357H105.501ZM135.33 12.7488H137.132L141.568 18.1938H145.302L139.372 11.1994L144.556 4.66992H141.239L136.934 10.469H135.33V4.66992H132.431V18.1938H135.33V12.7488ZM90.96 9.95992V6.94971H98.5381V4.69206H88.0605V18.2158H94.1011C97.4838 18.2158 99.4387 16.6665 99.4387 13.9662C99.4387 11.3765 97.6814 9.95992 94.4745 9.95992H90.96ZM90.96 12.2176H93.9912C95.8363 12.2176 96.6929 12.8373 96.6929 14.099C96.6929 15.3607 95.7924 15.9803 93.9912 15.9803H90.96V12.2176Z"/>
<path d="M20.0323 4.58203C20.5595 5.26819 20.9988 6.02075 21.3722 6.81756L11.2242 14.3652L6.96289 11.6649V8.43334L11.2022 11.1115L20.0323 4.58203Z"/>
<path d="M2.63637 11.4427C2.63637 11.2877 2.63637 11.1549 2.65834 11L0.0883718 10.8672C0.0883718 11.0443 0.0664062 11.2435 0.0664062 11.4205C0.0664062 14.5193 1.31844 17.3303 3.33926 19.3666L5.1624 17.5295C3.60285 15.9801 2.63637 13.8331 2.63637 11.4427Z"/>
<path d="M11.2015 2.81134C11.3553 2.81134 11.4871 2.81134 11.6409 2.83348L11.7726 0.243813C11.5969 0.243813 11.3992 0.22168 11.2235 0.22168C8.14834 0.22168 5.35872 1.48331 3.33789 3.51963L5.16103 5.35674C6.69861 3.78524 8.85124 2.81134 11.2015 2.81134Z"/>
<path d="M11.202 20.0757C11.0482 20.0757 10.9164 20.0757 10.7626 20.0535L10.6309 22.6433C10.8066 22.6433 11.0043 22.6653 11.18 22.6653C14.2551 22.6653 17.0448 21.4037 19.0656 19.3674L17.2424 17.5303C15.7049 19.1239 13.5742 20.0757 11.202 20.0757Z"/>
<path d="M16.0355 4.31613L18.2101 2.70035C16.2991 1.15098 13.861 0.199219 11.2031 0.199219V2.78888C13.0043 2.81102 14.6738 3.36436 16.0355 4.31613Z"/>
<path d="M22.3606 11.4429C22.3606 10.7567 22.2946 10.0927 22.1848 9.42871L19.7906 11.2216C19.7906 11.288 19.7906 11.3765 19.7906 11.4429C19.7906 13.9883 18.6922 16.2681 16.957 17.8396L18.6922 19.7652C20.9327 17.7289 22.3606 14.7409 22.3606 11.4429Z"/>
<path d="M11.202 20.0757C8.67593 20.0757 6.41391 18.9683 4.85437 17.2197L2.94336 18.9683C4.98615 21.2481 7.92953 22.6646 11.2024 22.6646L11.202 20.0757Z"/>
<path d="M5.46993 5.04675L3.73466 3.12109C1.4722 5.17955 0.0664062 8.14549 0.0664062 11.4434L2.63637 11.4427C2.63637 8.91941 3.73466 6.61826 5.46993 5.04675Z"/>
</svg>
