<svg width="132" height="22" viewBox="0 0 132 22" fill="currentColor" xmlns="http://www.w3.org/2000/svg">
<path d="M94.8911 11.8496H87.7455V17.561H85.4141V4.3667H87.7455V9.68412H94.8911V4.3667H97.2252V17.561H94.8911V11.8496Z"/>
<path d="M109.723 6.53505H102.766V17.561H100.432V4.3667H112.055V17.561H109.723V6.53505Z"/>
<path d="M123.324 4.98928H123.809C127.801 4.98928 130.021 7.17464 130.021 10.8141C130.021 14.6774 127.653 16.6757 123.641 16.6757H123.324V17.937H120.992V16.6757H120.507C116.515 16.6757 114.293 14.4875 114.293 10.8509C114.293 6.98757 116.664 4.98928 120.673 4.98928H120.992V3.98872H123.324V4.98928ZM120.6 14.6264H120.992V7.04426H120.647C118.035 7.04426 116.767 8.2489 116.767 10.7744C116.756 13.5465 118.437 14.6264 120.6 14.6264ZM123.324 7.04993V14.6264H123.677C126.289 14.6264 127.557 13.4189 127.557 10.8934C127.557 8.12418 125.874 7.04993 123.714 7.04993H123.324Z"/>
<path d="M22 11C22 10.3375 21.9418 9.67505 21.8253 9.02713L19.4593 10.7743C19.4593 10.8471 19.4593 10.9272 19.4593 11C19.4666 15.6737 15.6737 19.4739 11 19.4739C6.32627 19.4739 2.52613 15.6883 2.52613 11.0146C2.52613 6.34083 6.31171 2.5407 10.9854 2.5407C12.6962 2.5407 14.3633 3.05029 15.7684 4.01853L17.9087 2.43878C13.184 -1.37592 6.25347 -0.633364 2.43878 4.09133C-1.37592 8.81601 -0.633363 15.7465 4.09132 19.5612C8.81601 23.3759 15.7465 22.6334 19.5612 17.9087C21.141 15.9504 22 13.5116 22 11Z"/>
<path d="M10.7804 10.6869L6.67773 8.05886V11.2184L10.7804 13.8464L20.6055 6.45727C20.2559 5.67832 19.8278 4.95032 19.3141 4.27328L10.7804 10.6869Z"/>
<path d="M62.804 6.58183L65.7366 4.38329H55.9258V17.6182H65.7366V15.4124H58.7228V12.0272H64.702V9.82141H58.7228V6.58183H62.804Z"/>
<path d="M48.5181 9.54488H45.1075V6.58194H50.5445L53.477 4.37611H42.3105V17.6183H48.1542C51.4364 17.6183 53.3129 16.1041 53.3129 13.4615C53.3129 10.9354 51.6148 9.54488 48.5181 9.54488ZM48.0329 15.4125H45.1147V11.7434H48.0329C49.8096 11.7434 50.6372 12.3549 50.6372 13.578C50.6372 14.8301 49.7596 15.4125 48.0329 15.4125Z"/>
<path d="M73.6841 4.38329H68.3398V17.6182H71.1368V13.8691H73.6769C77.0875 13.8691 79.1995 12.0418 79.1995 9.11525C79.1995 6.18871 77.0875 4.38329 73.6841 4.38329ZM73.6198 11.6632H71.1368V6.58183H73.6198C75.4108 6.58183 76.4026 7.48455 76.4026 9.12254C76.4026 10.7605 75.4179 11.6632 73.6198 11.6632Z"/>
<path d="M37.5028 14.7499C36.7607 15.1576 35.9259 15.376 35.084 15.3687C32.5582 15.3687 30.7316 13.5269 30.7316 11.0007C30.7316 8.47456 32.5653 6.63273 35.084 6.63273C35.9973 6.61817 36.8892 6.90209 37.6312 7.44808L39.6433 5.93385L39.5078 5.81737C38.3376 4.76906 36.7679 4.2085 34.977 4.2085C33.0362 4.2085 31.2667 4.87826 30.0109 6.09401C28.7551 7.30976 28.0488 9.02783 28.0488 10.9279C28.0488 12.828 28.7409 14.5752 30.0038 15.8346C31.2667 17.094 33.0291 17.7929 34.9556 17.7929C36.9748 17.7929 38.7372 17.0722 39.9287 15.7691L38.1164 14.4077L37.5028 14.7499Z"/>
</svg>
