<svg width="146" height="24" viewBox="0 0 146 24" fill="none" xmlns="http://www.w3.org/2000/svg">
<g clip-path="url(#clip0_308_7552)">
<path d="M65.0172 6.92794L68.0484 4.67029H57.9004V18.1941H68.0484V15.9365H60.7999V12.4835H66.9941V10.2259H60.7999V6.92794H65.0172Z" fill="#21A038"/>
<path d="M50.2342 9.93815H46.7198V6.92794H52.343L55.3742 4.67029H43.8203V18.1941H49.8608C53.2436 18.1941 55.1984 16.6447 55.1984 13.9444C55.1984 11.3547 53.4412 9.93815 50.2342 9.93815ZM49.751 15.9365H46.7198V12.1958H49.751C51.5962 12.1958 52.4528 12.8155 52.4528 14.0772C52.4528 15.3389 51.5302 15.9365 49.751 15.9365Z" fill="#21A038"/>
<path d="M76.2652 4.67029H70.752V18.1941H73.6513V14.3649H76.2872C79.8016 14.3649 81.9982 12.5057 81.9982 9.51761C81.9982 6.52953 79.8016 4.67029 76.2652 4.67029ZM76.1994 12.1073H73.6294V6.92794H76.1994C78.0664 6.92794 79.0768 7.85756 79.0768 9.51761C79.0768 11.1776 78.0664 12.1073 76.1994 12.1073Z" fill="#21A038"/>
<path d="M38.856 15.2723C38.0873 15.6929 37.2307 15.9142 36.352 15.9142C33.7381 15.9142 31.849 14.0329 31.849 11.4432C31.849 8.85354 33.7381 6.97217 36.352 6.97217C37.2964 6.95003 38.219 7.2599 38.9879 7.81325L41.0746 6.26387L40.9427 6.13107C39.7347 5.04651 38.1092 4.49316 36.2642 4.49316C34.2652 4.49316 32.4421 5.17931 31.1242 6.41881C29.8062 7.70259 29.0594 9.49543 29.1034 11.3547C29.0814 13.2361 29.8062 15.0511 31.1242 16.379C32.508 17.685 34.3531 18.4153 36.2421 18.3711C38.3289 18.3711 40.152 17.6407 41.3821 16.3126L39.515 14.9182L38.856 15.2723Z" fill="#21A038"/>
<path d="M116.857 4.69242V18.2162H119.757V12.6827H125.929V18.2162H128.828V4.69242H125.929V10.248H119.757V4.69242H116.857ZM111.871 18.2162H114.924L109.257 4.69242H106.314L100.537 18.2162H103.458L104.623 15.4937H110.773L111.871 18.2162ZM105.501 13.2361L107.742 7.8133L109.85 13.2361H105.501ZM135.33 12.7492H137.132L141.568 18.1941H145.302L139.372 11.1998L144.556 4.67029H141.239L136.934 10.4694H135.33V4.67029H132.431V18.1941H135.33V12.7492ZM90.96 9.96028V6.95008H98.5381V4.69242H88.0605V18.2162H94.1011C97.4838 18.2162 99.4387 16.6669 99.4387 13.9665C99.4387 11.3768 97.6814 9.96028 94.4745 9.96028H90.96ZM90.96 15.9586V12.2179H93.9912C95.8363 12.2179 96.6929 12.8377 96.6929 14.0993C96.6929 15.361 95.7924 15.9806 93.9912 15.9806H90.96V15.9586Z" fill="#21A038"/>
<path d="M20.0325 4.58171C20.5597 5.26787 20.999 6.02043 21.3724 6.81724L11.2244 14.3648L6.96306 11.6646V8.43302L11.2024 11.1112L20.0325 4.58171Z" fill="#21A038"/>
<path d="M2.63637 11.4432C2.63637 11.2882 2.63637 11.1554 2.65834 11.0005L0.0883718 10.8677C0.0883718 11.0448 0.0664062 11.244 0.0664062 11.421C0.0664062 14.5198 1.31844 17.3308 3.33926 19.3671L5.1624 17.53C3.60285 15.9806 2.63637 13.8336 2.63637 11.4432Z" fill="url(#paint0_linear_308_7552)"/>
<path d="M11.2015 2.81098C11.3553 2.81098 11.4871 2.81098 11.6409 2.83311L11.7726 0.243447C11.5969 0.243447 11.3992 0.221313 11.2235 0.221313C8.14834 0.221313 5.35872 1.48295 3.33789 3.51926L5.16103 5.35638C6.69861 3.78487 8.85124 2.81098 11.2015 2.81098Z" fill="url(#paint1_linear_308_7552)"/>
<path d="M11.202 20.0757C11.0482 20.0757 10.9164 20.0757 10.7626 20.0535L10.6309 22.6433C10.8066 22.6433 11.0043 22.6653 11.18 22.6653C14.2551 22.6653 17.0448 21.4037 19.0656 19.3674L17.2424 17.5303C15.7049 19.1239 13.5742 20.0757 11.202 20.0757Z" fill="url(#paint2_linear_308_7552)"/>
<path d="M16.0355 4.31613L18.2101 2.70035C16.2991 1.15098 13.861 0.199219 11.2031 0.199219V2.78888C13.0043 2.81102 14.6738 3.36436 16.0355 4.31613Z" fill="url(#paint3_linear_308_7552)"/>
<path d="M22.3606 11.4433C22.3606 10.7571 22.2946 10.0931 22.1848 9.42908L19.7906 11.2219C19.7906 11.2883 19.7906 11.3769 19.7906 11.4433C19.7906 13.9887 18.6922 16.2685 16.957 17.8399L18.6922 19.7656C20.9327 17.7293 22.3606 14.7413 22.3606 11.4433Z" fill="#21A038"/>
<path d="M11.2024 20.0754C8.6764 20.0754 6.41394 18.9688 4.8544 17.2201L2.94339 18.9688C4.98619 21.2485 7.92956 22.665 11.2024 22.665V20.0754Z" fill="url(#paint4_linear_308_7552)"/>
<path d="M5.46993 5.04675L3.73466 3.12109C1.4722 5.17955 0.0664062 8.14549 0.0664062 11.4434H2.63637C2.63637 8.92017 3.73466 6.61826 5.46993 5.04675Z" fill="url(#paint5_linear_308_7552)"/>
</g>
<defs>
<linearGradient id="paint0_linear_308_7552" x1="3.06503" y1="19.052" x2="0.440965" y2="11.4088" gradientUnits="userSpaceOnUse">
<stop offset="0.1444" stop-color="#F2E913"/>
<stop offset="0.3037" stop-color="#E7E518"/>
<stop offset="0.5823" stop-color="#CADB26"/>
<stop offset="0.891" stop-color="#A3CD39"/>
</linearGradient>
<linearGradient id="paint1_linear_308_7552" x1="4.07046" y1="3.22704" x2="10.7322" y2="0.668898" gradientUnits="userSpaceOnUse">
<stop offset="0.0592" stop-color="#0FA8E0"/>
<stop offset="0.5385" stop-color="#0099F9"/>
<stop offset="0.9234" stop-color="#0291EB"/>
</linearGradient>
<linearGradient id="paint2_linear_308_7552" x1="10.48" y1="20.4629" x2="18.4218" y2="18.6543" gradientUnits="userSpaceOnUse">
<stop offset="0.1226" stop-color="#A3CD39"/>
<stop offset="0.2846" stop-color="#86C339"/>
<stop offset="0.8693" stop-color="#21A038"/>
</linearGradient>
<linearGradient id="paint3_linear_308_7552" x1="10.6751" y1="1.84865" x2="17.2782" y2="3.90162" gradientUnits="userSpaceOnUse">
<stop offset="0.0566" stop-color="#0291EB"/>
<stop offset="0.79" stop-color="#0C8ACB"/>
</linearGradient>
<linearGradient id="paint4_linear_308_7552" x1="3.59684" y1="19.379" x2="10.6893" y2="22.0494" gradientUnits="userSpaceOnUse">
<stop offset="0.1324" stop-color="#F2E913"/>
<stop offset="0.2977" stop-color="#EBE716"/>
<stop offset="0.5306" stop-color="#D9E01F"/>
<stop offset="0.8023" stop-color="#BBD62D"/>
<stop offset="0.9829" stop-color="#A3CD39"/>
</linearGradient>
<linearGradient id="paint5_linear_308_7552" x1="2.03557" y1="11.7562" x2="4.87243" y2="4.31998" gradientUnits="userSpaceOnUse">
<stop offset="0.0698" stop-color="#A3CD39"/>
<stop offset="0.2599" stop-color="#81C55F"/>
<stop offset="0.9216" stop-color="#0FA8E0"/>
</linearGradient>
<clipPath id="clip0_308_7552">
<rect width="145.412" height="24" fill="white"/>
</clipPath>
</defs>
</svg>
