<svg width="24" height="24" viewBox="0 0 24 24" fill="currentColor" xmlns="http://www.w3.org/2000/svg">
<path d="M22 11.5C22 16.7467 17.7467 21 12.5 21C7.25329 21 3 16.7467 3 11.5C3 6.25329 7.25329 2 12.5 2C17.7467 2 22 6.25329 22 11.5Z"/>
<path fill-rule="evenodd" clip-rule="evenodd" d="M12.5 20C17.1944 20 21 16.1944 21 11.5C21 6.80558 17.1944 3 12.5 3C7.80558 3 4 6.80558 4 11.5C4 16.1944 7.80558 20 12.5 20ZM12.5 21C17.7467 21 22 16.7467 22 11.5C22 6.25329 17.7467 2 12.5 2C7.25329 2 3 6.25329 3 11.5C3 16.7467 7.25329 21 12.5 21Z"/>
<path d="M12.2171 6.79999C12.4184 6.79999 12.6152 6.85968 12.7826 6.97153C12.95 7.08337 13.0804 7.24234 13.1575 7.42833C13.2345 7.61432 13.2547 7.81897 13.2154 8.01642C13.1761 8.21386 13.0792 8.39523 12.9368 8.53758C12.7945 8.67993 12.6131 8.77687 12.4157 8.81614C12.2182 8.85542 12.0135 8.83526 11.8276 8.75822C11.6416 8.68118 11.4826 8.55072 11.3708 8.38334C11.2589 8.21595 11.1992 8.01916 11.1992 7.81784C11.1992 7.54789 11.3065 7.289 11.4973 7.09811C11.6882 6.90723 11.9471 6.79999 12.2171 6.79999ZM13.2349 16.3C12.875 16.3 12.5298 16.157 12.2753 15.9025C12.0208 15.648 11.8778 15.3028 11.8778 14.9428V11.55C11.6978 11.55 11.5252 11.4785 11.398 11.3512C11.2707 11.224 11.1992 11.0514 11.1992 10.8714C11.1992 10.6914 11.2707 10.5189 11.398 10.3916C11.5252 10.2643 11.6978 10.1928 11.8778 10.1928C12.2377 10.1928 12.5829 10.3358 12.8374 10.5903C13.0919 10.8449 13.2349 11.1901 13.2349 11.55V14.9428C13.4149 14.9428 13.5875 15.0143 13.7148 15.1416C13.842 15.2688 13.9135 15.4414 13.9135 15.6214C13.9135 15.8014 13.842 15.974 13.7148 16.1012C13.5875 16.2285 13.4149 16.3 13.2349 16.3Z"/>
</svg>
