<svg width="24" height="24" viewBox="0 0 24 24" fill="currentColor" xmlns="http://www.w3.org/2000/svg">
<path d="M12.5 21C17.7467 21 22 16.7467 22 11.5C22 6.25329 17.7467 2 12.5 2C7.25329 2 3 6.25329 3 11.5C3 16.7467 7.25329 21 12.5 21ZM12.2171 6.80078C12.4184 6.80078 12.6152 6.86048 12.7826 6.97232C12.95 7.08416 13.0804 7.24313 13.1575 7.42912C13.2345 7.61511 13.2547 7.81977 13.2154 8.01721C13.1761 8.21466 13.0792 8.39602 12.9368 8.53837C12.7945 8.68072 12.6131 8.77766 12.4157 8.81694C12.2182 8.85621 12.0135 8.83606 11.8276 8.75902C11.6416 8.68198 11.4826 8.55152 11.3708 8.38413C11.2589 8.21674 11.1992 8.01995 11.1992 7.81864C11.1992 7.54869 11.3065 7.28979 11.4973 7.0989C11.6882 6.90802 11.9471 6.80078 12.2171 6.80078ZM13.2349 16.3008C12.875 16.3008 12.5298 16.1578 12.2753 15.9033C12.0208 15.6488 11.8778 15.3036 11.8778 14.9436V11.5508C11.6978 11.5508 11.5252 11.4793 11.398 11.352C11.2707 11.2248 11.1992 11.0522 11.1992 10.8722C11.1992 10.6922 11.2707 10.5196 11.398 10.3924C11.5252 10.2651 11.6978 10.1936 11.8778 10.1936C12.2377 10.1936 12.5829 10.3366 12.8374 10.5911C13.0919 10.8457 13.2349 11.1908 13.2349 11.5508V14.9436C13.4149 14.9436 13.5875 15.0151 13.7148 15.1424C13.842 15.2696 13.9135 15.4422 13.9135 15.6222C13.9135 15.8022 13.842 15.9748 13.7148 16.102C13.5875 16.2293 13.4149 16.3008 13.2349 16.3008Z"/>
</svg>
