<svg width="64" height="64" viewBox="0 0 64 64" fill="currentColor" xmlns="http://www.w3.org/2000/svg">
<path d="M32 0C14.4 0 0 14.4 0 32V64H32C49.6 64 64 49.6 64 32C64 14.4 49.6 0 32 0ZM32.2667 49.0667C22.9333 49.0667 15.2 41.3333 15.2 32C15.2 22.6667 22.9333 14.9333 32.2667 14.9333C37.6 14.9333 42.4 17.3333 45.6 21.3333L38.6667 26.9333C37.0667 25.0667 34.9333 24 32.2667 24C27.7333 24 24.2667 27.7333 24.2667 32C24.2667 36.5333 28 40 32.2667 40C34.6667 40 37.0667 38.9333 38.6667 36.8L45.8667 42.4C42.6667 46.6667 37.6 49.0667 32.2667 49.0667Z"/>
</svg>
